<svg xmlns="http://www.w3.org/2000/svg" width="150.824" height="125.775" viewBox="0 0 150.824 125.775">
  <g id="ikaylogofficial" transform="translate(0.503)">
    <path id="Path_1" data-name="Path 1" d="M229,471s27,65,0,62,0,22,0,22h39s20-87,0-84A144.757,144.757,0,0,1,229,471Z" transform="translate(-217 -440)" fill="#20c2e4" stroke="#b7b7b7" stroke-linecap="round" stroke-width="1"/>
    <g id="Ellipse_1" data-name="Ellipse 1" transform="translate(25)" fill="#b7b7b7" stroke="#20c2e4" stroke-linecap="round" stroke-width="1">
      <circle cx="12" cy="12" r="12" stroke="none"/>
      <circle cx="12" cy="12" r="11.5" fill="none"/>
    </g>
    <path id="Path_2" data-name="Path 2" d="M285,552l19.239-101H335.6l-13.564,40.606s20.346,2.971,37.3-26.74,38.341,23.231,0,32.683C344.2,501.282,337.177,506.886,330,517,319.458,531.853,310.41,552,285,552Z" transform="translate(-242 -439)" fill="#b7b7b7" stroke="#20c2e4" stroke-linecap="round" stroke-width="1"/>
    <g id="Rectangle_1" data-name="Rectangle 1" transform="translate(85.818 45.564) rotate(39)" fill="#20c2e4" stroke="#b7b7b7" stroke-linecap="round" stroke-width="1">
      <rect width="83" height="36" rx="18" stroke="none"/>
      <rect x="0.5" y="0.5" width="82" height="35" rx="17.5" fill="none"/>
    </g>
  </g>
</svg>
